<svg width="584" height="584" xmlns="http://www.w3.org/2000/svg" xmlns:xlink="http://www.w3.org/1999/xlink" xml:space="preserve" overflow="hidden"><defs><clipPath id="clip0"><rect x="348" y="68" width="584" height="584"/></clipPath></defs><g clip-path="url(#clip0)" transform="translate(-348 -68)"><path d="M737.333 250.5C737.333 304.256 693.756 347.833 640 347.833 586.244 347.833 542.667 304.256 542.667 250.5 542.667 196.744 586.244 153.167 640 153.167 693.756 153.167 737.333 196.744 737.333 250.5Z" stroke="#4472C4" stroke-width="6.08333" fill="#4472C4"/><path d="M816.417 420.286C814.757 407.614 808.475 396.001 798.775 387.679 772.785 369.882 743.692 357.11 713 350.023 709.532 349.233 705.883 348.563 702.233 347.894 664.507 372.067 616.162 372.067 578.437 347.894L567.487 349.902C536.766 357.417 507.581 370.198 481.225 387.679 470.397 394.614 465.895 407.511 463.583 420.286L445.333 524.858C444.241 533.684 447.897 542.429 454.945 547.853L496.616 575.35 496.616 443.646C496.615 428.392 508.98 416.027 524.234 416.027 524.294 416.027 524.356 416.027 524.417 416.027L755.583 416.027C770.837 416.027 783.202 428.392 783.202 443.646L783.202 572.004 827.123 544.447C832.323 540.935 835.211 534.881 834.667 528.63Z" stroke="#4472C4" stroke-width="6.08333" fill="#4472C4"/><path d="M771.218 595.242 771.218 443.646C771.218 435.112 764.301 428.194 755.767 428.193 755.706 428.193 755.645 428.194 755.583 428.194L524.417 428.194C515.883 428.194 508.965 435.112 508.965 443.646L508.965 595.242 462.427 595.242 462.427 602.968C462.461 611.488 469.359 618.387 477.879 618.42L802.121 618.42C810.641 618.387 817.539 611.488 817.573 602.968L817.573 595.242ZM608.488 544.447 599.911 553.024 565.783 518.897 599.911 484.769 608.488 493.347 582.999 518.897ZM631.179 557.282 619.925 552.598 648.456 483.735 659.649 488.419ZM679.846 553.024 671.268 544.447 696.758 518.897 671.268 493.347 679.846 484.769 713.973 518.897Z" stroke="#4472C4" stroke-width="6.08333" fill="#4472C4"/></g></svg>