<svg width="584" height="584" xmlns="http://www.w3.org/2000/svg" xmlns:xlink="http://www.w3.org/1999/xlink" xml:space="preserve" overflow="hidden"><defs><clipPath id="clip0"><rect x="348" y="68" width="584" height="584"/></clipPath></defs><g clip-path="url(#clip0)" transform="translate(-348 -68)"><path d="M787.217 147.083C787.217 173.961 765.428 195.75 738.55 195.75 711.672 195.75 689.883 173.961 689.883 147.083 689.883 120.205 711.672 98.4167 738.55 98.4167 765.428 98.4167 787.217 120.205 787.217 147.083Z" stroke="#4472C4" stroke-width="6.08333" fill="#4472C4"/><path d="M856.567 214C844.4 207.917 829.8 212.175 823.717 224.342L802.425 264.492 708.742 205.483C705.092 203.05 700.833 201.833 695.967 201.833L592.55 201.833C583.425 201.833 575.517 206.7 571.258 214.608L531.717 287.608C525.025 299.167 529.892 314.375 541.45 320.458 545.1 322.283 549.358 323.5 553.008 323.5 561.525 323.5 570.042 318.633 574.3 310.725L607.15 250.5 643.042 250.5 535.367 451.25 434.383 451.25C421 451.25 410.05 462.2 410.05 475.583 410.05 488.967 421 499.917 434.383 499.917L549.967 499.917C559.092 499.917 567 495.05 571.258 487.142L613.842 408.667 683.8 473.758 678.325 596.033C677.108 609.417 687.45 620.975 700.833 621.583 701.442 621.583 701.442 621.583 702.05 621.583 714.825 621.583 725.775 611.242 726.383 598.467L732.467 464.633C733.075 457.333 730.033 450.642 724.558 445.775L665.55 391.025 727.6 275.442 798.167 319.85C803.642 323.5 810.942 324.717 817.633 322.892 824.325 321.067 829.8 316.808 832.842 310.725L866.3 246.85C872.992 235.292 868.733 220.692 856.567 214Z" stroke="#4472C4" stroke-width="6.08333" fill="#4472C4"/></g></svg>