<svg width="584" height="584" xmlns="http://www.w3.org/2000/svg" xmlns:xlink="http://www.w3.org/1999/xlink" xml:space="preserve" overflow="hidden"><defs><clipPath id="clip0"><rect x="348" y="68" width="584" height="584"/></clipPath></defs><g clip-path="url(#clip0)" transform="translate(-348 -68)"><path d="M899.15 288.825 867.517 277.267 867.517 210.958 899.15 197.575 685.017 118.492 424.65 209.742C399.708 221.908 399.1 255.367 399.1 282.742 399.1 291.867 400.317 300.992 402.142 309.508 381.458 322.892 380.85 353.917 380.85 380.075 380.85 401.367 385.717 420.833 399.1 433 396.058 443.342 397.883 456.117 397.883 471.325 397.883 498.7 405.183 523.642 429.517 532.158L598.633 602.117 897.933 478.017 866.3 466.458 866.3 399.542 897.933 386.158 849.267 367.908 849.267 309.508 899.15 288.825ZM431.95 252.325 601.067 318.633 843.792 220.692 843.792 273.008 601.067 373.992 431.95 307.075 431.95 252.325ZM842.575 462.2 599.85 562.575 430.125 495.658 430.125 448.208 581.6 510.258 843.183 406.842 842.575 462.2ZM825.542 370.95 582.817 471.325 413.7 404.408 413.7 349.658 587.683 419.008 826.15 319.242 826.15 370.95Z" stroke="#4472C4" stroke-width="6.08333" fill="#4472C4"/></g></svg>