<svg width="584" height="584" xmlns="http://www.w3.org/2000/svg" xmlns:xlink="http://www.w3.org/1999/xlink" xml:space="preserve" overflow="hidden"><defs><clipPath id="clip0"><rect x="348" y="68" width="584" height="584"/></clipPath></defs><g clip-path="url(#clip0)" transform="translate(-348 -68)"><path d="M871.167 201.833 871.167 499.917 408.833 499.917 408.833 201.833 372.333 201.833 372.333 542.5 585.25 542.5C585.25 552.842 593.158 560.75 603.5 560.75L676.5 560.75C686.842 560.75 694.75 552.842 694.75 542.5L907.667 542.5 907.667 201.833 871.167 201.833Z" stroke="#4472C4" stroke-width="6.08333" fill="#4472C4"/><path d="M846.833 165.333 433.167 165.333 433.167 475.583 846.833 475.583 846.833 165.333ZM469.667 201.833 627.833 201.833 627.833 439.083 469.667 439.083 469.667 201.833ZM810.333 439.083 652.167 439.083 652.167 201.833 810.333 201.833 810.333 439.083Z" stroke="#4472C4" stroke-width="6.08333" fill="#4472C4"/><path d="M688.667 262.667 773.833 262.667 773.833 280.917 688.667 280.917Z" stroke="#4472C4" stroke-width="6.08333" fill="#4472C4"/><path d="M688.667 299.167 773.833 299.167 773.833 317.417 688.667 317.417Z" stroke="#4472C4" stroke-width="6.08333" fill="#4472C4"/><path d="M688.667 335.667 747.675 335.667 747.675 353.917 688.667 353.917Z" stroke="#4472C4" stroke-width="6.08333" fill="#4472C4"/></g></svg>